<?xml version="1.0" encoding="UTF-8" standalone="no"?>
<!-- Created with Inkscape (http://www.inkscape.org/) -->

<svg
   xmlns:dc="http://purl.org/dc/elements/1.1/"
   xmlns:cc="http://creativecommons.org/ns#"
   xmlns:rdf="http://www.w3.org/1999/02/22-rdf-syntax-ns#"
   xmlns:svg="http://www.w3.org/2000/svg"
   xmlns="http://www.w3.org/2000/svg"
   xmlns:sodipodi="http://sodipodi.sourceforge.net/DTD/sodipodi-0.dtd"
   xmlns:inkscape="http://www.inkscape.org/namespaces/inkscape"
   version="1.1"
   id="svg19"
   width="649.43512"
   height="111.44214"
   viewBox="0 0 649.43512 111.44214"
   sodipodi:docname="hhuu.svg"
   inkscape:export-filename="/home/aleks/Pictures/Selection_001.png.png"
   inkscape:export-xdpi="96"
   inkscape:export-ydpi="96"
   inkscape:version="0.92.1 r15371">
  <metadata
     id="metadata25">
    <rdf:RDF>
      <cc:Work
         rdf:about="">
        <dc:format>image/svg+xml</dc:format>
        <dc:type
           rdf:resource="http://purl.org/dc/dcmitype/StillImage" />
        <dc:title></dc:title>
      </cc:Work>
    </rdf:RDF>
  </metadata>
  <defs
     id="defs23" />
  <sodipodi:namedview
     pagecolor="#ffffff"
     bordercolor="#666666"
     borderopacity="1"
     objecttolerance="10"
     gridtolerance="10"
     guidetolerance="10"
     inkscape:pageopacity="0"
     inkscape:pageshadow="2"
     inkscape:window-width="1280"
     inkscape:window-height="736"
     id="namedview21"
     showgrid="false"
     inkscape:zoom="0.79991455"
     inkscape:cx="303.03664"
     inkscape:cy="-190.34508"
     inkscape:window-x="0"
     inkscape:window-y="27"
     inkscape:window-maximized="1"
     inkscape:current-layer="svg19" />
  <path
     style="fill:#550000;stroke-width:1.04966867"
     d="m 440.17247,80.762854 c -3.32461,-3.83603 -2.79481,-5.183859 0.80667,-2.05223 4.65027,4.04358 7.49337,3.49352 14.14138,-2.73598 3.95264,-3.703819 7.40698,-8.485769 10.89617,-15.083869 2.80982,-5.31345 4.8537,-9.89231 4.54195,-10.17526 -0.31175,-0.28294 -3.94744,1.94788 -8.07931,4.95739 -11.62566,8.46774 -17.21526,10.47056 -20.17835,7.23013 -0.75172,-0.82207 -1.09935,-2.42276 -0.77251,-3.5571 0.32684,-1.13434 0.2614,-1.91249 -0.14542,-1.72924 -1.0488,0.47246 -8.7388,3.69908 -14.08198,5.90862 -8.50885,3.51862 -13.47067,2.23993 -16.3113,-4.20351 l -1.8226,-4.13426 -5.42442,4.60508 c -3.94157,3.34622 -6.32382,4.60509 -8.71455,4.60509 -3.5407,0 -6.7205,-2.98803 -6.7205,-6.31518 0,-1.47157 -1.19956,-0.89131 -5.62819,2.72251 -5.94361,4.85006 -9.80918,5.76755 -13.62644,3.23421 -1.20923,-0.80251 -2.04692,-2.58934 -2.04692,-4.36617 v -3.00772 l -5.01382,3.47351 c -5.80659,4.02274 -8.94279,5.25884 -13.34261,5.25884 -7.27357,0 -8.84374,-7.71296 -3.5202,-17.29177 2.64808,-4.76479 2.84794,-5.65604 1.37725,-6.14157 -0.94619,-0.31237 -2.27791,-0.81134 -2.95939,-1.10883 -0.68148,-0.29748 -3.75894,2.5442 -6.8388,6.31484 -8.27935,10.13631 -16.91978,17.22733 -20.99154,17.22733 -3.55987,0 -6.73925,-2.97932 -6.73925,-6.31518 0,-1.47157 -1.19956,-0.89131 -5.62819,2.72251 -7.08075,5.77798 -13.17008,6.19171 -15.32757,1.04139 -1.6787,-4.00736 0.87481,-9.13448 7.98522,-16.03321 9.90133,-9.60656 18.25271,-12.93851 23.33518,-9.31003 1.45952,1.04198 3.16597,1.89452 3.79212,1.89452 2.74109,0 2.18465,2.35907 -1.82407,7.73323 -7.51229,10.07112 -9.61274,15.2023 -6.85603,16.74862 3.65931,2.05261 20.77065,-14.15458 27.60655,-26.14787 2.14468,-3.76272 4.73623,-6.96547 5.78448,-7.1487 2.61145,-0.45645 2.4353,2.32249 -0.37421,5.90352 -3.5791,4.56196 -0.0225,6.75933 5.38086,3.3244 1.91847,-1.21959 2.85109,-1.31939 4.03013,-0.43129 1.26706,0.95441 0.48989,2.38203 -4.46578,8.20333 -6.20818,7.29259 -7.52078,9.95072 -6.89502,13.96304 0.28768,1.84464 1.15025,2.42005 4.00044,2.66865 5.50314,0.47999 11.6542,-3.38781 22.65176,-14.24348 9.80973,-9.68317 13.65313,-12.26755 20.26496,-13.62661 2.72136,-0.55938 4.21652,-0.28148 6.23372,1.15864 1.45952,1.04198 3.16598,1.89452 3.79212,1.89452 2.74109,0 2.18465,2.35907 -1.82407,7.73323 -7.51229,10.07112 -9.61274,15.2023 -6.85603,16.74862 1.95224,1.09507 7.4587,-2.35872 12.7894,-8.02184 7.20964,-7.65924 28.71204,-25.46001 30.75435,-25.46001 2.27474,0 2.08497,2.23594 -0.53135,6.26054 -1.93439,2.97563 -7.39523,23.47689 -6.43832,24.17092 0.2028,0.14708 2.04577,-0.14314 4.0955,-0.64493 2.27317,-0.5565 5.71116,-2.88195 8.81443,-5.96209 13.25083,-13.15208 15.29107,-14.85353 17.06877,-14.23439 2.79485,0.97339 2.20884,2.2159 -3.9002,8.26974 -6.32175,6.26461 -11.93722,12.98699 -11.93722,14.29025 0,1.75601 5.15483,0.75405 9.38502,-1.82419 7.34072,-4.47408 19.7126,-14.0353 22.34897,-17.2717 2.48039,-3.04493 6.82916,-4.187 6.82916,-1.79348 0,0.69337 -2.14358,4.18087 -4.76351,7.75 -2.61993,3.56913 -6.95828,10.26091 -9.64079,14.87062 -5.37787,9.24152 -11.71586,16.398559 -16.51766,18.652239 -4.90079,2.30012 -9.33775,1.86698 -11.96844,-1.16839 z M 304.03627,57.966685 c 5.03313,-4.61027 15.95956,-17.61702 15.95956,-18.99817 0,-1.18263 -5.75298,-0.50766 -9.11258,1.06913 -4.49413,2.10927 -15.99874,12.05721 -17.99532,15.56041 -1.91094,3.35292 -1.99411,7.49402 -0.16176,8.05357 2.76916,0.84562 5.89687,-0.7265 11.3101,-5.68494 z m 79.32991,0 c 5.03313,-4.61027 15.95956,-17.61702 15.95956,-18.99817 0,-1.18263 -5.75298,-0.50766 -9.11258,1.06913 -4.49413,2.10927 -15.99874,12.05721 -17.99532,15.56041 -1.91094,3.35292 -1.99411,7.49402 -0.16176,8.05357 2.76916,0.84562 5.89687,-0.7265 11.3101,-5.68494 z m 41.16188,1.68103 c 3.17225,-2.40473 8.46809,-23.25 5.90678,-23.25 -2.10578,0 -17.88745,15.81976 -17.88745,17.93062 0,2.68433 4.67727,7.06938 7.54049,7.06938 1.17239,0 3.17047,-0.7875 4.44018,-1.75 z M 45.646552,74.336675 c -6.38933,-1.18007 -17.54622,-6.16576 -20.77242,-9.28259 l -2.51504,-2.42977 -5.54496,3.3867 c -5.38646,3.28989 -10.8233997,4.31513 -13.7935697,2.60103 -2.51647999,-1.45227 -3.73721999,-6.20787 -2.58280999,-10.06179 2.18849999,-7.30616 8.64121999,-16.15254 11.78196969,-16.15254 0.79574,0 3.19461,3.15 5.33082,7 2.13621,3.85 4.10064,7 4.3654,7 0.26475,0 2.8165,-2.97003 5.67054,-6.60006 l 5.18917,-6.60005 -3.43983,-2.44333 c -8.08817,-5.74507 -3.66414,-18.21974 6.08855,-17.16821 1.58978,0.1714 3.11467,0.98665 3.38866,1.81165 0.40201,1.21054 0.21643,1.25879 -0.96175,0.25 -2.18452,-1.87045 -4.77369,-1.51632 -7.3113,1 -4.56959,4.53126 -3.96963,10.00405 1.45004,13.22704 2.47703,1.47305 2.67867,1.30859 9.47097,-7.72413 8.86286,-11.78623 20.60079,-23.0412814 26.92999,-25.8220914 5.62651,-2.47208 12.11923,-2.14043 14.43785,0.73747 2.27721,2.82651 1.57439,8.4571014 -1.88372,15.0914914 -6.60045,12.66294 -21.39091,22.03341 -36.30664,23.00202 l -7.63859,0.49604 -5.62957,6.376 c -3.09626,3.5068 -5.89075,6.99374 -6.20997,7.74877 -1.67916,3.97151 17.31161,12.61739 27.71424,12.61739 9.15438,0 16.00144,-4.02628 11.98805,-7.04933 -0.87297,-0.65756 -1.58721,-2.87725 -1.58721,-4.93265 0,-7.392 11.58478,-23.18582 15.90354,-21.68169 0.94893,0.33049 1.72444,0.95252 1.72335,1.38228 -10e-4,0.42976 -2.94304,4.34426 -6.53769,8.69887 -7.40831,8.97455 -8.75379,12.13071 -6.17076,14.47508 1.58724,1.44058 2.17659,1.37087 6.65997,-0.7878 6.855,-3.30056 13.20935,-10.04794 20.869155,-22.15998 7.489973,-11.84348 15.725063,-20.37259 18.677473,-19.34433 2.50091,0.87102 2.06516,1.68395 -6.74536,12.58406 -17.60748,21.78346 -21.252768,29.81549 -13.53158,29.81549 4.916052,0 13.2547,-5.91393 18.74245,-13.29249 6.40362,-8.61001 10.32377,-12.16004 12.56563,-11.37924 0.96166,0.33493 1.7476,0.96058 1.74651,1.39034 -0.001,0.42976 -2.95968,4.36441 -6.57465,8.74366 -6.34547,7.68702 -8.67244,12.36943 -7.21255,14.51333 2.38174,3.49765 11.0217,-1.60628 23.53953,-13.90563 10.33364,-10.15328 14.17055,-12.75554 20.82388,-14.12313 2.72135,-0.55938 4.21651,-0.28148 6.23371,1.15864 1.45952,1.04198 3.16598,1.89452 3.79212,1.89452 2.74109,0 2.18465,2.35907 -1.82407,7.73323 -5.5566,7.44928 -7.92548,11.68105 -7.92548,14.15809 0,5.32384 6.04323,2.71906 15.3087,-6.59841 3.70006,-3.72083 6.72739,-6.21845 6.72739,-5.55025 0,0.66819 -3.59844,4.59944 -7.99653,8.73612 -6.66497,6.26879 -8.58101,7.52122 -11.50648,7.52122 -3.76575,0 -6.94029,-2.8886 -6.94029,-6.31518 0,-1.47157 -1.19956,-0.89131 -5.62819,2.72251 -3.75272,3.06226 -6.61976,4.59267 -8.60384,4.59267 -4.36343,0 -7.06952,-2.21889 -7.06952,-5.79674 v -3.07982 l -4.93348,3.94137 c -5.64155,4.50705 -12.61842,6.88526 -15.46064,5.27008 -1.02514,-0.58256 -1.97654,-2.65244 -2.16985,-4.72076 l -0.34422,-3.6833 -4.06299,2.88989 c -2.23464,1.58944 -5.14597,3.405 -6.469615,4.03458 -5.811137,2.76403 -12.467733,0.0961 -12.467733,-4.99699 v -3.02829 l -5.05099,4.03526 c -2.77805,2.21939 -6.67149,4.52065 -8.6521,5.11391 -1.99198,0.59667 -4.14464,2.16136 -4.81749,3.50164 -2.37728,4.73547 -12.59092,7.241399 -22.24618,5.45813 z m -34.37667,-8.34395 c 1.63638,-0.77274 4.1272,-2.52439 5.53515,-3.89256 l 2.55991,-2.48758 -4.26581,-6.85743 c -2.34619,-3.7716 -4.97147,-6.85744 -5.8339497,-6.85744 -2.31394,0 -5.35857,8.18105 -5.42728,14.58333 -0.0796,7.42058 1.27002,8.42151 7.4319797,5.51168 z m 137.411988,-8.02604 c 5.03313,-4.61027 15.95956,-17.61702 15.95956,-18.99817 0,-1.18263 -5.75298,-0.50766 -9.11258,1.06913 -4.49413,2.10927 -15.99874,12.05721 -17.99532,15.56041 -1.91094,3.35292 -1.99411,7.49402 -0.16176,8.05357 2.76916,0.84562 5.89687,-0.7265 11.3101,-5.68494 z M 56.664592,39.695545 c 15.36324,-6.79712 30.27337,-29.2967 22.05869,-33.2868514 -5.68819,-2.76295 -12.86925,2.89381 -27.96574,22.0295714 -5.36984,6.80663 -10.03939,13.02856 -10.37677,13.82651 -0.9486,2.2436 8.92764,0.68535 16.28382,-2.56923 z m 208.241028,29.70217 c -2.81089,-2.55117 -2.80213,-7.20606 0.0242,-12.85921 1.19863,-2.39756 2.17937,-4.76006 2.17937,-5.25 0,-0.48993 -6.68723,-0.89079 -14.86054,-0.89079 h -14.86053 l -2.634,3.78699 c -1.4487,2.08285 -4.18902,6.58285 -6.0896,10 -1.90319,3.42183 -4.19097,6.21301 -5.09247,6.21301 -2.74531,0 -1.86441,-2.94537 3.32128,-11.10514 2.72697,-4.29092 4.95812,-8.24435 4.95812,-8.7854 0,-0.90404 -4.27171,-0.71337 -10.77062,0.48075 -1.3789,0.25336 -3.4861,1.34921 -4.68267,2.43522 -1.19657,1.08601 -2.17558,1.56457 -2.17558,1.06346 0,-0.50111 1.50283,-2.05881 3.33963,-3.46157 3.60867,-2.75593 9.56921,-4.61249 14.84015,-4.62235 3.03659,-0.006 3.9453,-0.96173 11.17349,-11.75557 10.67137,-15.93556 12.5153,-19.49904 12.5153,-24.18651 0,-5.9214314 -3.11432,-7.4653914 -13.80266,-6.8428314 -15.65749,0.91199 -31.06653,10.5140414 -38.7863,24.1694414 -3.95976,7.00437 -4.1627,14.96698 -0.45104,17.69718 8.16626,6.00689 22.75706,-3.79371 21.94626,-14.74123 -0.16922,-2.28501 0.0641,-3.94595 0.51867,-3.69099 1.6147,0.90582 0.79321,8.48418 -1.32894,12.25958 -4.52584,8.05169 -13.46206,11.71126 -21.32048,8.73119 -10.48401,-3.97575 -9.70582,-18.88668 1.57008,-30.08435 10.41338,-10.3411214 22.97862,-15.6128614 37.88185,-15.8933214 10.47357,-0.19711 16.11034,1.79802 18.23543,6.45439 2.07562,4.5479814 -0.0392,9.3323514 -10.67281,24.1446214 -5.13936,7.159 -8.94342,13.37276 -8.45346,13.80834 0.48996,0.43559 6.85947,1.1051 14.15446,1.4878 l 13.26362,0.69582 6.37978,-9.13383 c 13.25477,-18.97668 31.13588,-36.2740114 40.82138,-39.48868138 1.16111,-0.38539 -1.60132,2.57634998 -6.13874,6.58163998 -11.4424,10.1004714 -26.73437,28.1066214 -32.84971,38.6802014 -1.35463,2.34219 -1.30076,2.38444 2.31999,1.81972 l 3.70682,-0.57815 -3.30541,1.38518 c -1.81798,0.76185 -3.85747,1.40548 -4.53221,1.43028 -1.14141,0.042 -5.8678,8.68021 -7.54795,13.79511 -1.81079,5.51259 2.64387,8.08469 8.04994,4.648 1.38601,-0.8811 2.76174,-1.38261 3.05717,-1.11447 0.63362,0.57506 -8.49209,4.71647 -10.39285,4.71647 -0.71768,0 -2.29647,-0.9 -3.50846,-2 z m 277.87504,-4.2 c -0.72719,-0.66 -1.32216,-2.90703 -1.32216,-4.9934 v -3.79339 l -5.04288,3.49365 c -2.7736,1.92151 -6.24789,3.76814 -7.72067,4.10363 -3.64253,0.82975 -8.17074,-1.96931 -8.17074,-5.05064 0,-2.84474 3.55287,-10.66214 6.62593,-14.5791 3.24067,-4.13058 2.68081,-4.54806 -1.94326,-1.44908 -7.35391,4.92849 -13.56884,10.83912 -17.61036,16.74815 -2.17423,3.1789 -4.49331,5.6067 -5.15351,5.39511 -2.14723,-0.68818 -0.66927,-5.98988 4.3,-15.42493 2.6795,-5.0875 4.35228,-9.25 3.71729,-9.25 -1.39795,0 -17.73869,14.73051 -23.29557,21 -3.2006,3.61104 -4.26203,4.25204 -5.37309,3.24479 -1.10945,-1.00578 -1.11117,-2.09866 -0.009,-5.5 2.73277,-8.43097 2.73512,-8.3968 -0.34475,-4.99479 -1.61824,1.7875 -3.44831,3.25 -4.06682,3.25 -0.61849,0 0.82129,-2.1375 3.19951,-4.75 2.37823,-2.6125 6.40653,-7.3375 8.95179,-10.5 4.39491,-5.46055 7.86377,-7.38609 7.86377,-4.36507 0,0.76172 -2.22746,4.92422 -4.94992,9.25 -2.72246,4.32579 -4.95361,8.28239 -4.95812,8.79245 -0.004,0.51006 4.08225,-2.66548 9.08169,-7.05675 10.42022,-9.15264 15.14583,-12.37063 18.16622,-12.37063 3.65178,0 3.60215,1.03598 -0.39469,8.23932 l -3.88453,7.00092 3.3526,-2.16668 c 1.84393,-1.19168 3.67535,-2.64066 4.06981,-3.21995 0.39448,-0.5793 3.70913,-2.80835 7.36587,-4.95344 6.24703,-3.66458 11.01421,-4.88668 12.2103,-3.1302 0.28837,0.42349 -1.71522,3.46099 -4.45245,6.75 -2.73721,3.28902 -6.01999,7.89708 -7.29508,10.24014 -2.13678,3.92651 -2.17858,4.38692 -0.5339,5.87965 1.22738,1.11397 2.7031,1.41027 4.72736,0.94915 3.79537,-0.86456 13.20661,-8.85928 16.58116,-14.08547 3.58449,-5.55131 8.76366,-9.90746 10.89624,-9.16472 0.94517,0.32918 1.7176,0.95013 1.71651,1.37989 -10e-4,0.42976 -2.95967,4.36441 -6.57465,8.74366 -6.34547,7.68702 -8.67243,12.36943 -7.21254,14.51333 2.5064,3.68074 11.68329,-1.99355 24.18851,-14.95633 9.61845,-9.97039 13.1037,-12.35453 15.23398,-10.42108 0.3625,0.32901 -1.62568,3.14151 -4.41818,6.25 -2.7925,3.10849 -6.47715,7.65241 -8.18809,10.09759 -3.17854,4.54257 -4.16133,10.05422 -1.79278,10.05422 3.09637,0 10.55647,-6.11913 19.74761,-16.19791 7.66723,-8.40771 10.45401,-10.80209 12.57232,-10.80209 3.92281,0 3.4126,2.04132 -2.03913,8.15833 -7.33908,8.23467 -10.66455,13.09097 -10.66455,15.5738 0,3.43225 3.39235,2.85399 9.6675,-1.64792 6.2063,-4.45252 10.17918,-8.81579 19.5555,-21.47718 7.77681,-10.50149 14.44791,-17.60703 16.53049,-17.60703 3.4741,0 2.47824,2.43921 -3.81507,9.34446 -3.67438,4.03166 -6.68069,7.6345 -6.68069,8.00633 0,0.37183 1.78635,-0.001 3.96966,-0.82933 10.74463,-4.07458 18.76761,-0.31857 15.30139,7.16344 -1.01671,2.19462 -3.1943,3.85722 -7.63417,5.82874 -5.26465,2.33775 -7.12928,2.67236 -12.22972,2.19458 -3.30989,-0.31004 -6.01798,-0.43838 -6.01798,-0.28519 0,0.15319 0.5645,1.80817 1.25443,3.67774 1.85952,5.0389 5.17624,7.89923 9.15961,7.89923 4.10218,0 6.99906,-1.65314 14.65201,-8.36131 3.18146,-2.78871 5.78447,-4.57484 5.78447,-3.96919 0,0.60565 -3.21816,3.83346 -7.15147,7.17291 -11.84706,10.05836 -19.62989,10.47375 -25.97947,1.38661 l -3.08645,-4.41714 -2.84415,5.09406 c -1.56428,2.80173 -3.34716,5.09406 -3.96197,5.09406 -1.888,0 -2.57313,-3.14535 -1.3341,-6.12463 1.12654,-2.70878 0.91808,-2.63839 -4.87889,1.64747 -9.21831,6.81535 -15.80235,5.77787 -14.14728,-2.22925 l 0.77064,-3.72833 -5.57346,4.73162 c -3.06541,2.6024 -6.89218,5.18668 -8.50392,5.74284 -6.79651,2.34527 -9.90515,-2.23956 -6.16743,-9.09613 l 2.21697,-4.06688 -6.46552,5.59725 c -8.64155,7.48104 -16.23987,10.32865 -19.54816,7.32604 z m 89.13029,-18.05 c 7.40959,-3.41227 10.70288,-7.07053 8.51704,-9.46094 -1.74873,-1.91241 -4.04564,-1.59646 -11.42343,1.57137 -6.06219,2.60294 -12.62337,7.91301 -12.62337,10.21629 0,2.10831 8.74402,0.79825 15.52976,-2.32672 z M 83.008942,32.789495 c -1.24789,-1.36469 -1.16186,-1.81309 0.5682,-2.96125 1.4508,-0.96283 2.63038,-1.06567 4.09017,-0.3566 2.508294,1.21836 2.671042,3.49628 0.30859,4.31908 -2.6131,0.91009 -3.35619,0.7603 -4.96696,-1.00123 z m 46.275798,0 c -1.24789,-1.36469 -1.16187,-1.81309 0.5682,-2.96125 1.4508,-0.96283 2.63038,-1.06567 4.09017,-0.3566 2.50829,1.21836 2.67104,3.49628 0.30858,4.31908 -2.61309,0.91009 -3.35618,0.7603 -4.96695,-1.00123 z m 431.90728,0 c -1.24789,-1.36469 -1.16186,-1.81309 0.5682,-2.96125 1.4508,-0.96283 2.63038,-1.06567 4.09017,-0.3566 2.5083,1.21836 2.67104,3.49628 0.30859,4.31908 -2.6131,0.91009 -3.35619,0.7603 -4.96696,-1.00123 z"
     id="path29"
     inkscape:connector-curvature="0" />
  <text
     xml:space="preserve"
     style="font-style:normal;font-variant:normal;font-weight:normal;font-stretch:normal;font-size:28.80482101px;line-height:1.25;font-family:sans-serif;-inkscape-font-specification:'sans-serif, Normal';font-variant-ligatures:normal;font-variant-caps:normal;font-variant-numeric:normal;font-feature-settings:normal;text-align:start;letter-spacing:0px;word-spacing:0px;writing-mode:lr-tb;text-anchor:start;fill:#550000;fill-opacity:1;stroke:none;stroke-width:1.08018088"
     x="173.50609"
     y="114.38603"
     id="text33"
     transform="scale(1.0801808,0.92577094)"><tspan
       sodipodi:role="line"
       id="tspan31"
       x="173.50609"
       y="114.38603"
       style="stroke-width:1.08018088">f  o  t  o  g  r  a  f</tspan></text>
</svg>
