<?xml version="1.0" encoding="UTF-8" standalone="no"?>
<!-- Created with Inkscape (http://www.inkscape.org/) -->

<svg
   xmlns:dc="http://purl.org/dc/elements/1.1/"
   xmlns:cc="http://creativecommons.org/ns#"
   xmlns:rdf="http://www.w3.org/1999/02/22-rdf-syntax-ns#"
   xmlns:svg="http://www.w3.org/2000/svg"
   xmlns="http://www.w3.org/2000/svg"
   xmlns:sodipodi="http://sodipodi.sourceforge.net/DTD/sodipodi-0.dtd"
   xmlns:inkscape="http://www.inkscape.org/namespaces/inkscape"
   width="310.83728mm"
   height="35.288364mm"
   viewBox="0 0 310.83729 35.288365"
   version="1.1"
   id="svg8"
   inkscape:version="0.92.1 r15371"
   sodipodi:docname="liliac.svg">
  <defs
     id="defs2" />
  <sodipodi:namedview
     id="base"
     pagecolor="#ffffff"
     bordercolor="#666666"
     borderopacity="1.0"
     inkscape:pageopacity="0.0"
     inkscape:pageshadow="2"
     inkscape:zoom="0.49497475"
     inkscape:cx="582.74644"
     inkscape:cy="-142.87978"
     inkscape:document-units="mm"
     inkscape:current-layer="layer1"
     showgrid="false"
     inkscape:window-width="1280"
     inkscape:window-height="736"
     inkscape:window-x="0"
     inkscape:window-y="27"
     inkscape:window-maximized="1" />
  <metadata
     id="metadata5">
    <rdf:RDF>
      <cc:Work
         rdf:about="">
        <dc:format>image/svg+xml</dc:format>
        <dc:type
           rdf:resource="http://purl.org/dc/dcmitype/StillImage" />
        <dc:title></dc:title>
      </cc:Work>
    </rdf:RDF>
  </metadata>
  <g
     inkscape:label="Layer 1"
     inkscape:groupmode="layer"
     id="layer1"
     transform="translate(113.51735,-78.765174)">
    <path
       style="fill:#501616;stroke-width:0.38247788"
       d="m 97.160918,101.16904 c -1.591245,-1.06411 -1.337668,-1.43801 0.386096,-0.56929 2.225741,1.1217 3.586526,0.96912 6.768446,-0.75896 1.89184,-1.02745 3.54518,-2.35399 5.2152,-4.18432 1.34485,-1.47397 2.32311,-2.74416 2.17389,-2.82265 -0.1492,-0.0785 -1.88935,0.54035 -3.86697,1.37519 -5.56435,2.34899 -8.239685,2.90457 -9.657901,2.00566 -0.359792,-0.22804 -0.526176,-0.67208 -0.369742,-0.98675 0.156434,-0.31466 0.125114,-0.53053 -0.0696,-0.47969 -0.501987,0.13106 -4.182626,1.02613 -6.740013,1.63907 -4.072562,0.97608 -6.447422,0.62137 -7.807022,-1.16607 l -0.872347,-1.14686 -2.596269,1.27747 c -1.886541,0.92826 -3.026747,1.27746 -4.171018,1.27746 -1.694671,0 -3.216611,-0.82888 -3.216611,-1.75184 0,-0.40822 -0.57414,-0.24726 -2.693797,0.75523 -2.844774,1.34542 -4.694939,1.59994 -6.52198,0.89718 -0.578769,-0.22262 -0.97971,-0.7183 -0.97971,-1.21119 v -0.83435 l -2.399747,0.96356 c -2.779191,1.11592 -4.28026,1.45881 -6.386133,1.45881 -3.481319,0 -4.232845,-2.13959 -1.68486,-4.79678 1.267445,-1.32177 1.363102,-1.569 0.659191,-1.7037 -0.452875,-0.0866 -1.09027,-0.22506 -1.416443,-0.30758 -0.326174,-0.0825 -1.799129,0.70577 -3.273233,1.75175 -3.962719,2.81185 -8.098258,4.77891 -10.047111,4.77891 -1.703846,0 -3.225586,-0.82647 -3.225586,-1.75184 0,-0.40822 -0.57414,-0.24726 -2.693798,0.75523 -3.389038,1.60283 -6.303554,1.71759 -7.336191,0.28889 -0.803469,-1.11167 0.418713,-2.53394 3.821943,-4.44766 4.739041,-2.6649 8.736233,-3.58919 11.168839,-2.58264 0.698568,0.28905 1.515322,0.52554 1.815011,0.52554 1.311959,0 1.04563,0.65441 -0.873048,2.14523 -3.595581,2.79376 -4.600912,4.21716 -3.28148,4.64611 1.751444,0.56941 9.941388,-3.92652 13.213233,-7.2535 1.026498,-1.04378 2.266885,-1.93224 2.768603,-1.98306 1.24991,-0.12662 1.165603,0.64426 -0.179105,1.63765 -1.713053,1.2655 -0.01075,1.87506 2.575423,0.9222 0.918232,-0.33832 1.36461,-0.36601 1.92893,-0.11964 0.606445,0.26475 0.234472,0.66078 -2.137445,2.27562 -2.971397,2.02299 -3.599643,2.76037 -3.300138,3.8734 0.137692,0.5117 0.55054,0.67133 1.914718,0.74029 2.633948,0.13315 5.578007,-0.93979 10.841733,-3.95119 4.695202,-2.68614 6.534751,-3.40306 9.699354,-3.78006 1.302514,-0.15517 2.018137,-0.0781 2.98362,0.32141 0.698568,0.28905 1.515322,0.52554 1.815011,0.52554 1.31196,0 1.045631,0.65441 -0.873048,2.14523 -3.595581,2.79376 -4.600912,4.21716 -3.28148,4.64611 0.934396,0.30378 3.569932,-0.65431 6.12135,-2.22528 3.450723,-2.1247 13.742347,-7.06269 14.719848,-7.06269 1.088751,0 0.997926,0.62027 -0.254316,1.7367 -0.925852,0.82545 -3.539555,6.51256 -3.08155,6.70509 0.09707,0.0408 0.979158,-0.0397 1.960213,-0.17891 1.088003,-0.15438 2.733513,-0.79946 4.218823,-1.6539 6.342199,-3.64843 7.318719,-4.12041 8.169569,-3.94867 1.33769,0.27002 1.05721,0.6147 -1.86674,2.29406 -3.02576,1.73782 -5.713475,3.60263 -5.713475,3.96416 0,0.48712 2.467245,0.20918 4.491925,-0.50604 3.51347,-1.24112 9.43498,-3.89344 10.69681,-4.79122 1.18719,-0.84467 3.26862,-1.16149 3.26862,-0.49752 0,0.19235 -1.02597,1.15979 -2.27994,2.14987 -1.25397,0.99009 -3.33041,2.84642 -4.61434,4.12516 -2.574,2.56363 -5.60752,4.54901 -7.9058,5.17419 -2.34564,0.63807 -4.469293,0.5179 -5.728412,-0.32412 z M 32.002506,94.84532 c 2.40899,-1.2789 7.63867,-4.88702 7.63867,-5.27015 0,-0.32807 -2.753531,-0.14083 -4.361525,0.29657 -2.151009,0.58512 -7.657422,3.34471 -8.613039,4.31651 -0.914625,0.93011 -0.954435,2.07887 -0.07742,2.23409 1.32539,0.23458 2.822397,-0.20153 5.413314,-1.57702 z m 37.969409,0 c 2.408991,-1.2789 7.63867,-4.88702 7.63867,-5.27015 0,-0.32807 -2.75353,-0.14083 -4.361525,0.29657 -2.151009,0.58512 -7.657422,3.34471 -8.613039,4.31651 -0.914625,0.93011 -0.954434,2.07887 -0.07742,2.23409 1.32539,0.23458 2.822397,-0.20153 5.413314,-1.57702 z m 19.701172,0.46632 c 1.518323,-0.66708 4.053055,-6.44962 2.827144,-6.44962 -1.007882,0 -8.561411,4.38845 -8.561411,4.97401 0,0.74464 2.238666,1.96107 3.609076,1.96107 0.561141,0 1.517474,-0.21846 2.125191,-0.48546 z M -91.669698,99.3864 c -3.058103,-0.32735 -8.398082,-1.71039 -9.942232,-2.57501 l -1.20376,-0.67403 -2.65397,0.93948 c -2.5781,0.91262 -5.18036,1.19704 -6.60196,0.72153 -1.20446,-0.40286 -1.78874,-1.72208 -1.23621,-2.79117 1.04748,-2.02675 4.13592,-4.48076 5.63916,-4.48076 0.38087,0 1.52904,0.87381 2.55148,1.94182 1.02244,1.068 1.96268,1.94182 2.08939,1.94182 0.12673,0 1.34806,-0.82389 2.71408,-1.83087 l 2.483675,-1.83088 -1.6464,-0.67779 c -3.871215,-1.5937 -1.753745,-5.05421 2.914144,-4.76251 0.76091,0.0475 1.490763,0.2737 1.621898,0.50255 0.192418,0.33581 0.103591,0.34919 -0.460316,0.0693 -1.045571,-0.51887 -2.284816,-0.42064 -3.499376,0.2774 -2.187135,1.25699 -1.899975,2.77516 0.69402,3.66922 1.185572,0.40863 1.282086,0.36301 4.533061,-2.1427 4.241997,-3.26954 9.860086,-6.39172 12.889408,-7.16313 2.692997,-0.68576 5.800589,-0.59376 6.910339,0.20458 1.089933,0.78408 0.753545,2.34602 -0.901599,4.18642 -3.159149,3.51274 -10.238257,6.11215 -17.377326,6.38083 l -3.656031,0.13761 -2.694462,1.76872 c -1.48195,0.9728 -2.819455,1.94009 -2.972255,2.14954 -0.80369,1.1017 8.285795,3.5001 13.264773,3.5001 4.381531,0 7.658714,-1.11691 5.737799,-1.95551 -0.417826,-0.18241 -0.759683,-0.79816 -0.759683,-1.36833 0,-2.05056 5.544789,-6.43182 7.611857,-6.01457 0.454185,0.0916 0.825368,0.26423 0.824845,0.38345 -5.17e-4,0.11922 -1.40862,1.20511 -3.129114,2.4131 -3.545814,2.48956 -4.189797,3.36509 -2.953488,4.01542 0.759693,0.39962 1.041773,0.38029 3.187639,-0.21853 3.280986,-0.91559 6.322347,-2.78734 9.98853,-6.14725 3.584898,-3.28542 7.526428,-5.65142 8.939533,-5.36618 1.197002,0.24163 0.988439,0.46714 -3.228507,3.49086 -8.427405,6.0428 -10.172136,8.27091 -6.476574,8.27091 2.352954,0 6.344051,-1.64054 8.970632,-3.68737 3.064944,-2.38845 4.941233,-3.37324 6.014243,-3.15664 0.460279,0.0929 0.836451,0.26646 0.835929,0.38568 -5.17e-4,0.11922 -1.416581,1.2107 -3.146805,2.42552 -3.037109,2.1324 -4.150858,3.43132 -3.452115,4.02604 1.139962,0.97026 5.275279,-0.44558 11.266647,-3.85747 4.945953,-2.81654 6.782401,-3.53842 9.966858,-3.91779 1.302515,-0.15517 2.018138,-0.0781 2.983621,0.32141 0.698569,0.28905 1.515322,0.52554 1.815012,0.52554 1.311959,0 1.04563,0.65441 -0.873049,2.14523 -2.659535,2.06644 -3.793344,3.24035 -3.793344,3.92749 0,1.47685 2.892452,0.75428 7.327152,-1.83042 1.770946,-1.03217 3.219906,-1.72501 3.219906,-1.53965 0,0.18535 -1.722308,1.2759 -3.827354,2.42342 -3.190031,1.73899 -4.107098,2.08641 -5.507304,2.08641 -1.802392,0 -3.321811,-0.8013 -3.321811,-1.75185 0,-0.40821 -0.574141,-0.24725 -2.693798,0.75523 -1.796154,0.84948 -3.168395,1.27402 -4.118031,1.27402 -2.088454,0 -3.383659,-0.61552 -3.383659,-1.60803 v -0.85435 l -2.361297,1.09335 c -2.700194,1.25026 -6.039509,1.90999 -7.399874,1.46193 -0.49066,-0.1616 -0.946024,-0.73579 -1.038542,-1.30954 l -0.164756,-1.02176 -1.944655,0.80165 c -1.069557,0.44092 -2.462997,0.94457 -3.096527,1.11922 -2.781365,0.76674 -5.967389,0.0266 -5.967389,-1.38619 v -0.84006 l -2.417539,1.1194 c -1.329645,0.61567 -3.193151,1.25404 -4.141125,1.41862 -0.953411,0.16551 -1.983735,0.59956 -2.305775,0.97136 -1.13783,1.31363 -6.026354,2.00879 -10.647619,1.5141 z m -16.453582,-2.31464 c 0.78321,-0.21435 1.97538,-0.70027 2.64928,-1.0798 l 1.22523,-0.69006 -2.04173,-1.90228 c -1.12295,-1.04625 -2.37948,-1.90227 -2.79228,-1.90227 -1.10751,0 -2.56476,2.26945 -2.59765,4.04546 -0.0381,2.05849 0.60787,2.33616 3.55715,1.52895 z m 65.769026,-2.22644 c 2.408991,-1.2789 7.63867,-4.88702 7.63867,-5.27015 0,-0.32807 -2.75353,-0.14083 -4.361525,0.29657 -2.151009,0.58512 -7.657422,3.34471 -8.613039,4.31651 -0.914624,0.93011 -0.954434,2.07887 -0.07742,2.23409 1.325391,0.23458 2.822398,-0.20153 5.413314,-1.57702 z m -44.041914,-5.06847 c 7.353256,-1.88555 14.489643,-8.127 10.557879,-9.23388 -2.722523,-0.76645 -6.159567,0.80276 -13.385148,6.11107 -2.570153,1.88818 -4.805123,3.61417 -4.966601,3.83553 -0.454025,0.62237 4.273003,0.19011 7.79387,-0.71272 z m 99.669699,8.23947 c -1.345367,-0.7077 -1.341174,-1.99899 0.0116,-3.56718 0.573696,-0.6651 1.043103,-1.32046 1.043103,-1.45637 0,-0.13591 -3.200689,-0.24711 -7.1126504,-0.24711 H 0.10293767 l -1.26070037,1.05053 c -0.69339,0.57779 -2.00498,1.8261 -2.9146479,2.77402 -0.9109178,0.94923 -2.0059081,1.72351 -2.4373882,1.72351 -1.3139789,0 -0.8923599,-0.81705 1.5896525,-3.08059 1.3051985,-1.19032 2.3730882,-2.28701 2.3730882,-2.4371 0,-0.25079 -2.0445578,-0.19789 -5.1551066,0.13335 -0.659977,0.0703 -1.66854,0.37428 -2.24125,0.67554 -0.5727103,0.30127 -1.0412903,0.43402 -1.0412903,0.29502 0,-0.13902 0.719293,-0.57113 1.5984333,-0.96026 1.727207,-0.7645 4.5800812,-1.27952 7.10289,-1.28225 1.45339507,-0.002 1.88832947,-0.26679 5.3479332,-3.26103 5.1076028,-4.42058 5.9901542,-5.40909 5.9901542,-6.70942 0,-1.64262 -1.4905946,-2.07092 -6.6063186,-1.89822 -7.4940908,0.25299 -14.8692691,2.91663 -18.5641571,6.70468 -1.895248,1.94303 -1.992381,4.15189 -0.215882,4.90925 3.908592,1.66633 10.892137,-1.05238 10.5040685,-4.08926 -0.080996,-0.63387 0.030693,-1.09462 0.2482461,-1.0239 0.772841,0.25129 0.379652,2.35355 -0.6360666,3.40086 -2.1661867,2.23356 -6.443298,3.24873 -10.204548,2.42205 -5.017927,-1.10289 -4.645463,-5.23922 0.751483,-8.34549 4.984118,-2.86866 10.9981773,-4.33106 18.1312634,-4.40886 5.0129271,-0.0546 7.7108386,0.49878 8.7279596,1.79047 0.993448,1.26162 -0.01877,2.58882 -5.1082883,6.69779 -2.4598377,1.98594 -4.2805605,3.70964 -4.0460519,3.83048 0.2345085,0.12083 3.2831252,0.30656 6.7747024,0.41272 l 6.3483218,0.19302 3.053531,-2.53375 c 6.344093,-5.26419 14.902466,-10.06253 19.538204,-10.95429 0.55574,-0.1069 -0.766434,0.71469 -2.938163,1.82578 -5.476639,2.80189 -12.795786,7.79686 -15.722752,10.73 -0.64836,0.64974 -0.622578,0.66146 1.11041,0.5048 l 1.774184,-0.16038 -1.582059,0.38425 c -0.870132,0.21134 -1.846289,0.38988 -2.169235,0.39677 -0.546311,0.0116 -2.808486,2.40792 -3.612652,3.8268 -0.866694,1.52921 1.265426,2.24272 3.852915,1.28938 0.663383,-0.24443 1.321841,-0.38355 1.463245,-0.30917 0.303265,0.15953 -4.064541,1.30836 -4.974298,1.30836 -0.343496,0 -1.099151,-0.24965 -1.679239,-0.5548 z M 146.27193,96.85123 c -0.34805,-0.18309 -0.63282,-0.80642 -0.63282,-1.38518 v -1.0523 l -2.41365,0.96914 c -1.32752,0.53304 -2.9904,1.0453 -3.69532,1.13836 -1.74341,0.23018 -3.91073,-0.54628 -3.91073,-1.40106 0,-0.78914 1.70049,-2.95771 3.17134,-4.04429 1.55107,-1.14583 1.28311,-1.26164 -0.93009,-0.40197 -3.51978,1.36717 -6.49441,3.0068 -8.42879,4.64598 -1.04065,0.88184 -2.15062,1.55532 -2.4666,1.49663 -1.02773,-0.19091 -0.32033,-1.66162 2.05809,-4.27893 1.28248,-1.41129 2.08311,-2.56598 1.77919,-2.56598 -0.66909,0 -8.4902,4.08629 -11.14987,5.82547 -1.5319,1.00171 -2.03993,1.17953 -2.57171,0.90011 -0.53101,-0.279 -0.53184,-0.58217 -0.004,-1.52572 1.30797,-2.33877 1.3091,-2.32929 -0.16501,-1.38557 -0.77453,0.49586 -1.65045,0.90157 -1.94648,0.90157 -0.29603,0 0.39309,-0.59296 1.53136,-1.31767 1.13829,-0.72472 3.06633,-2.03544 4.28456,-2.91274 2.10353,-1.51477 3.76382,-2.04892 3.76382,-1.21087 0,0.2113 -1.06612,1.36598 -2.36916,2.56597 -1.30305,1.19998 -2.37094,2.29757 -2.37309,2.43906 -0.002,0.14148 1.95387,-0.73942 4.34673,-1.95757 4.9874,-2.53897 7.2492,-3.43165 8.69484,-3.43165 1.74783,0 1.72409,0.28738 -0.18891,2.28562 l -1.85924,1.94207 1.60465,-0.60105 c 0.88255,-0.33057 1.75911,-0.73252 1.94792,-0.89322 0.1888,-0.16069 1.77529,-0.77904 3.5255,-1.3741 2.98999,-1.01656 5.27169,-1.35558 5.84417,-0.86833 0.13802,0.11748 -0.82095,0.96009 -2.13106,1.87247 -1.3101,0.91239 -2.88133,2.19067 -3.49162,2.84065 -1.02272,1.08923 -1.04273,1.21695 -0.25554,1.63104 0.58746,0.30902 1.29378,0.39121 2.26264,0.26329 1.81657,-0.23983 6.32104,-2.45759 7.93619,-3.90735 1.71563,-1.53995 4.19452,-2.74836 5.21523,-2.54233 0.45238,0.0913 0.82209,0.26357 0.82156,0.38279 -5.1e-4,0.11922 -1.41658,1.2107 -3.14679,2.42552 -3.03712,2.1324 -4.15087,3.43132 -3.45212,4.02604 1.19963,1.02105 5.59193,-0.55302 11.57726,-4.14892 4.60365,-2.76582 6.27178,-3.4272 7.29139,-2.89085 0.17351,0.0913 -0.77809,0.87146 -2.11465,1.73377 -1.33657,0.8623 -3.10014,2.12281 -3.91905,2.8011 -1.52133,1.26013 -1.99171,2.78907 -0.85806,2.78907 1.482,0 5.0526,-1.69746 9.45173,-4.49335 3.66974,-2.33231 5.00357,-2.99653 6.01744,-2.99653 1.87756,0 1.63336,0.56627 -0.97598,2.26315 -3.51268,2.28433 -5.10434,3.63147 -5.10434,4.32022 0,0.95211 1.62367,0.7917 4.62713,-0.45713 2.97049,-1.23516 4.87202,-2.44554 9.35978,-5.95785 3.72219,-2.91314 6.91515,-4.88425 7.91194,-4.88425 1.66279,0 1.18615,0.67665 -1.826,2.59219 -1.75865,1.11839 -3.19756,2.11784 -3.19756,2.22098 0,0.10317 0.85499,-3.9e-4 1.89999,-0.23005 5.14266,-1.13031 8.98268,-0.0884 7.32365,1.98715 -0.48663,0.60879 -1.52888,1.07001 -3.65392,1.61691 -2.5198,0.6485 -3.41227,0.74132 -5.85347,0.60879 -1.5842,-0.086 -2.88036,-0.12161 -2.88036,-0.0792 0,0.0425 0.27018,0.5016 0.6004,1.02022 0.89002,1.3978 2.47749,2.19127 4.38403,2.19127 1.96341,0 3.34994,-0.45859 7.01284,-2.31946 1.52274,-0.77359 2.76861,-1.26907 2.76861,-1.10106 0,0.16801 -1.5403,1.06341 -3.42289,1.98979 -5.67031,2.79022 -9.39538,2.90545 -12.43446,0.38465 l -1.47726,-1.22533 -1.36129,1.41311 c -0.7487,0.77721 -1.60204,1.4131 -1.89629,1.4131 -0.90366,0 -1.23158,-0.87252 -0.63855,-1.69898 0.5392,-0.75143 0.43942,-0.7319 -2.33516,0.45701 -4.41213,1.8906 -7.56342,1.6028 -6.77127,-0.6184 l 0.36885,-1.03425 -2.6676,1.31257 c -1.4672,0.72191 -3.29879,1.43879 -4.0702,1.59307 -3.25299,0.65059 -4.74088,-0.62126 -2.95191,-2.52329 l 1.06111,-1.12817 -3.09458,1.5527 c -4.13607,2.07527 -7.77282,2.8652 -9.35627,2.03227 z m 42.66014,-5.00713 c 3.54642,-0.94657 5.12268,-1.96139 4.07648,-2.62449 -0.83698,-0.53051 -1.93635,-0.44286 -5.46755,0.4359 -2.90154,0.72206 -6.04188,2.19509 -6.04188,2.83403 0,0.58485 4.18511,0.22143 7.43295,-0.64544 z M -73.78706,87.86108 c -0.597275,-0.37856 -0.556099,-0.50295 0.271955,-0.82145 0.694393,-0.26709 1.258971,-0.29562 1.957666,-0.099 1.200535,0.33798 1.27843,0.96988 0.147696,1.19813 -1.250696,0.25247 -1.606359,0.2109 -2.377317,-0.27775 z m 22.148822,0 c -0.597275,-0.37856 -0.556099,-0.50295 0.271956,-0.82145 0.694391,-0.26709 1.258971,-0.29562 1.957666,-0.099 1.200535,0.33798 1.27843,0.96988 0.147696,1.19813 -1.250698,0.25247 -1.60636,0.2109 -2.377318,-0.27775 z m 206.722348,0 c -0.59728,-0.37856 -0.5561,-0.50295 0.27195,-0.82145 0.69439,-0.26709 1.25897,-0.29562 1.95767,-0.099 1.20053,0.33798 1.27843,0.96988 0.14769,1.19813 -1.25069,0.25247 -1.60636,0.2109 -2.37731,-0.27775 z"
       id="path103"
       inkscape:connector-curvature="0" />
    <text
       xml:space="preserve"
       style="font-style:normal;font-variant:normal;font-weight:normal;font-stretch:normal;font-size:9.54822636px;line-height:1.25;font-family:sans-serif;-inkscape-font-specification:'sans-serif, Normal';font-variant-ligatures:normal;font-variant-caps:normal;font-variant-numeric:normal;font-feature-settings:normal;text-align:start;letter-spacing:0px;word-spacing:0px;writing-mode:lr-tb;text-anchor:start;fill:#2b0000;fill-opacity:1;stroke:none;stroke-width:0.43651733"
       x="-8.6605911"
       y="165.90115"
       id="text107"
       transform="scale(1.4720039,0.67934601)"><tspan
         sodipodi:role="line"
         id="tspan105"
         x="-8.6605911"
         y="165.90115"
         style="font-style:normal;font-variant:normal;font-weight:normal;font-stretch:normal;font-size:9.54822636px;font-family:sans-serif;-inkscape-font-specification:'sans-serif, Normal';font-variant-ligatures:normal;font-variant-caps:normal;font-variant-numeric:normal;font-feature-settings:normal;text-align:start;writing-mode:lr-tb;text-anchor:start;fill:#2b0000;stroke-width:0.43651733">f  o  t  o  g  r  a  f</tspan></text>
  </g>
</svg>
